<?xml version="1.0" standalone="no"?>
<!DOCTYPE svg PUBLIC "-//W3C//DTD SVG 20010904//EN"
 "http://www.w3.org/TR/2001/REC-SVG-20010904/DTD/svg10.dtd">
<svg version="1.0" xmlns="http://www.w3.org/2000/svg"
 width="875.000000pt" height="194.000000pt" viewBox="0 0 875.000000 194.000000"
 preserveAspectRatio="xMidYMid meet">
<metadata>
Created by potrace 1.15, written by Peter Selinger 2001-2017
</metadata>
<g transform="translate(0.000000,194.000000) scale(0.100000,-0.100000)"
fill="#000000" stroke="none">
<path d="M475 1921 c-48 -22 -69 -44 -90 -94 -13 -32 -15 -139 -15 -835 0
-881 -2 -853 62 -919 63 -66 40 -64 808 -61 l695 3 0 960 0 960 -710 2 c-671
3 -712 2 -750 -16z m95 -647 c0 -590 1 -625 18 -622 16 3 17 42 20 626 l2 622
645 0 645 0 -2 -722 -3 -723 -642 -3 -642 -2 -3 37 c-2 27 -8 39 -20 41 -15 3
-18 -4 -18 -33 0 -36 -3 -39 -50 -49 -39 -8 -64 -31 -57 -50 6 -15 9 -15 36
-1 26 13 119 15 716 15 648 0 686 -1 683 -17 -3 -17 -46 -18 -679 -23 -623 -5
-677 -6 -702 -23 -81 -53 -78 -176 6 -227 31 -19 52 -20 672 -18 l640 3 3 113
3 112 29 0 30 0 0 -140 0 -140 -682 0 -683 0 -39 23 c-22 12 -49 38 -60 57
-21 34 -21 48 -24 845 -2 757 -1 812 15 845 22 42 76 80 114 80 l29 0 0 -626z
m1220 -1039 l0 -95 -616 0 -616 0 -29 29 c-39 40 -41 97 -3 135 l27 26 618 0
619 0 0 -95z"/>
<path d="M1075 1683 c-160 -57 -260 -175 -287 -338 -8 -47 -8 -80 1 -121 13
-66 53 -160 81 -189 18 -19 20 -39 22 -205 l3 -185 208 -3 207 -2 0 32 c0 18
-6 70 -14 115 l-13 82 138 3 c180 4 182 6 187 143 l4 95 49 0 c63 0 63 8 3
118 -26 46 -53 111 -60 143 -31 133 -113 236 -232 292 -57 26 -81 32 -157 34
-67 3 -103 -1 -140 -14z m283 -57 c107 -55 193 -165 208 -267 3 -24 26 -81 51
-126 l44 -83 -44 0 c-55 0 -57 -4 -57 -125 0 -69 -4 -96 -15 -105 -23 -19
-417 -9 -473 13 -39 15 -43 15 -49 1 -10 -28 47 -50 155 -61 53 -5 63 -9 67
-27 6 -29 25 -151 25 -159 0 -4 -76 -7 -170 -7 l-170 0 0 171 c0 166 -1 171
-25 203 -13 17 -36 58 -51 91 -35 76 -38 192 -6 273 40 102 127 189 225 224
79 28 214 21 285 -16z"/>
<path d="M1007 1483 c-15 -15 -6 -33 17 -33 22 0 25 -6 31 -52 4 -29 11 -70
16 -90 10 -40 59 -88 90 -88 17 0 19 -8 19 -74 0 -71 -1 -74 -26 -80 -48 -12
-20 -31 46 -31 66 0 94 19 46 31 -25 6 -26 9 -26 80 0 73 0 74 26 74 55 0 94
73 106 195 2 23 9 31 26 33 30 4 26 36 -5 40 -31 5 -63 -31 -63 -70 -1 -86
-34 -158 -72 -158 -16 0 -18 9 -18 94 0 90 1 95 23 98 12 2 22 10 22 18 0 12
-14 15 -65 15 -51 0 -65 -3 -65 -15 0 -8 10 -16 23 -18 21 -3 22 -8 22 -98 0
-77 -3 -94 -15 -94 -26 0 -53 36 -59 79 -3 23 -9 59 -12 81 -3 22 -12 47 -21
55 -15 15 -54 20 -66 8z"/>
<path d="M557 283 c-4 -3 -7 -12 -7 -20 0 -11 106 -13 596 -13 562 0 595 1
592 18 -3 16 -40 17 -589 20 -322 1 -589 -1 -592 -5z"/>
<path d="M551 207 c-6 -8 -8 -17 -4 -20 8 -9 1188 -9 1196 0 4 3 2 12 -4 20
-17 19 -1171 19 -1188 0z"/>
<path d="M4470 1163 l0 -127 -27 26 c-56 53 -130 62 -203 26 -55 -28 -85 -72
-101 -146 -21 -105 8 -222 70 -274 60 -51 166 -49 226 4 l35 30 6 -31 c6 -26
11 -31 35 -31 l29 0 0 325 0 325 -35 0 -35 0 0 -127z m-76 -123 c55 -20 85
-117 71 -227 -9 -77 -44 -114 -111 -120 -103 -10 -147 43 -148 177 0 121 40
179 126 180 20 0 48 -4 62 -10z"/>
<path d="M2240 946 l0 -306 35 0 35 0 0 119 0 118 83 5 c152 8 219 61 225 178
4 82 -17 125 -79 160 -39 21 -59 25 -171 28 l-128 4 0 -306z m253 223 c60 -28
77 -124 31 -178 -30 -36 -77 -51 -156 -51 l-58 0 0 126 0 127 78 -5 c42 -3 90
-11 105 -19z"/>
<path d="M5210 945 l0 -305 35 0 35 0 0 145 0 145 165 0 165 0 0 -145 0 -145
35 0 35 0 0 305 0 305 -35 0 -35 0 0 -130 0 -130 -165 0 -165 0 0 130 0 130
-35 0 -35 0 0 -305z"/>
<path d="M6480 1162 c-9 -41 -17 -52 -46 -65 -42 -21 -46 -47 -5 -47 l29 0 4
-167 c2 -110 8 -176 17 -191 27 -49 101 -74 169 -56 15 4 22 14 22 30 0 22 -4
24 -48 24 -81 0 -86 12 -90 201 l-3 159 70 0 c69 0 71 1 71 25 0 24 -2 25 -70
25 l-70 0 0 55 c0 47 -3 55 -19 55 -14 0 -22 -12 -31 -48z"/>
<path d="M2804 1099 c-40 -11 -81 -53 -89 -89 -8 -36 16 -94 47 -114 13 -8 57
-29 98 -46 41 -17 82 -38 92 -47 18 -16 24 -59 10 -79 -25 -38 -122 -45 -202
-15 l-50 19 0 -32 c0 -41 28 -56 115 -63 114 -10 200 35 212 109 12 77 -29
119 -161 168 -68 26 -96 50 -96 85 0 40 39 58 113 52 34 -3 73 -9 88 -12 21
-5 27 -2 37 20 13 28 16 26 -53 44 -47 13 -118 13 -161 0z"/>
<path d="M3245 1091 c-81 -37 -117 -105 -118 -222 -1 -95 28 -160 90 -203 50
-35 151 -46 223 -24 39 12 45 18 48 45 l3 30 -53 -13 c-135 -35 -213 -1 -237
105 l-9 41 160 0 161 0 -5 70 c-4 54 -12 79 -32 111 -48 72 -148 98 -231 60z
m148 -61 c23 -19 47 -72 47 -107 0 -10 -31 -13 -120 -13 -114 0 -120 1 -120
20 0 30 26 75 56 99 36 28 102 28 137 1z"/>
<path d="M4798 1100 c-50 -15 -90 -52 -115 -108 -22 -47 -25 -64 -21 -136 6
-119 47 -183 137 -214 101 -35 203 7 254 103 17 32 21 58 21 125 0 92 -18 142
-66 187 -50 47 -138 65 -210 43z m163 -86 c66 -67 63 -227 -6 -291 -64 -60
-169 -40 -206 40 -40 89 -17 230 45 269 47 29 128 21 167 -18z"/>
<path d="M6114 1099 c-40 -11 -81 -53 -89 -89 -8 -36 16 -94 47 -114 13 -8 57
-29 98 -46 41 -17 82 -38 92 -47 18 -16 24 -59 10 -79 -25 -38 -122 -45 -202
-15 l-50 19 0 -32 c0 -41 28 -56 115 -63 114 -10 200 35 212 109 12 77 -29
119 -161 168 -68 26 -96 50 -96 85 0 40 39 58 113 52 34 -3 73 -9 88 -12 21
-5 27 -2 37 20 13 28 16 26 -53 44 -47 13 -118 13 -161 0z"/>
<path d="M6878 1100 c-50 -15 -90 -52 -115 -108 -22 -47 -25 -64 -21 -136 6
-119 47 -183 137 -214 101 -35 203 7 254 103 17 32 21 58 21 125 0 92 -18 142
-66 187 -50 47 -138 65 -210 43z m163 -86 c66 -67 63 -227 -6 -291 -64 -60
-169 -40 -206 40 -40 89 -17 230 45 269 47 29 128 21 167 -18z"/>
<path d="M7435 1098 c-11 -6 -37 -27 -57 -46 l-38 -36 0 42 c0 40 -1 42 -30
42 l-30 0 0 -230 0 -230 35 0 35 0 0 148 c0 124 3 153 19 182 27 51 64 74 119
75 45 1 47 2 50 33 3 32 3 32 -40 32 -24 0 -52 -6 -63 -12z"/>
<path d="M3630 920 c0 -210 8 -237 75 -270 71 -34 182 -17 225 35 14 17 15 16
20 -11 4 -23 11 -30 33 -32 l27 -3 0 230 0 231 -35 0 -35 0 0 -155 c0 -175 -9
-214 -59 -239 -35 -19 -100 -21 -134 -5 -41 19 -47 49 -47 229 l0 170 -35 0
-35 0 0 -180z"/>
<path d="M5830 870 l0 -230 35 0 35 0 0 230 0 230 -35 0 -35 0 0 -230z"/>
<path d="M7579 1053 c10 -27 51 -128 90 -226 39 -97 71 -184 71 -193 0 -30
-42 -113 -66 -129 -13 -8 -42 -15 -64 -15 -39 0 -41 -1 -38 -27 3 -25 7 -28
45 -31 53 -4 106 20 135 61 12 16 70 159 129 316 l107 286 -30 3 c-17 2 -34 0
-39 -5 -8 -8 -113 -298 -124 -346 -8 -29 -25 -47 -25 -25 1 7 -30 95 -67 195
l-68 183 -37 0 -38 0 19 -47z"/>
</g>
</svg>
